<svg width="50" height="40" viewBox="0 0 50 40" fill="none" xmlns="http://www.w3.org/2000/svg">
<path d="M21.4632 39.357L16.7693 37.995C16.2768 37.8564 15.9998 37.3409 16.1383 36.8484L26.6419 0.666603C26.7805 0.174124 27.296 -0.102895 27.7885 0.0356144L32.4824 1.39763C32.9749 1.53614 33.2519 2.0517 33.1134 2.54418L22.6098 38.726C22.4636 39.2185 21.9557 39.5032 21.4632 39.357ZM12.6909 30.7232L16.0383 27.1527C16.3922 26.7757 16.3691 26.1755 15.9767 25.8292L9.00505 19.6963L15.9767 13.5634C16.3691 13.2171 16.3999 12.6169 16.0383 12.2399L12.6909 8.66938C12.3447 8.30002 11.7599 8.27694 11.3828 8.63091L0.294333 19.0191C-0.098111 19.3808 -0.098111 20.0041 0.294333 20.3658L11.3828 30.7617C11.7599 31.1156 12.3447 31.1003 12.6909 30.7232ZM37.8689 30.7694L48.9574 20.3734C49.3498 20.0118 49.3498 19.3885 48.9574 19.0268L37.8689 8.62321C37.4996 8.27694 36.9147 8.29233 36.5608 8.66169L33.2135 12.2322C32.8595 12.6092 32.8826 13.2094 33.275 13.5557L40.2467 19.6963L33.275 25.8292C32.8826 26.1755 32.8518 26.7757 33.2135 27.1527L36.5608 30.7232C36.9071 31.1003 37.4919 31.1156 37.8689 30.7694Z" fill="url(#paint0_linear_1302_90)"/>
<defs>
<linearGradient id="paint0_linear_1302_90" x1="24.6259" y1="0" x2="24.6259" y2="39.3953" gradientUnits="userSpaceOnUse">
<stop stop-color="#59B791" stop-opacity="0.6"/>
<stop offset="1" stop-color="#17C1E8"/>
</linearGradient>
</defs>
</svg>
