<svg width="49" height="39" viewBox="0 0 49 39" fill="none" xmlns="http://www.w3.org/2000/svg">
<path d="M3.675 0C1.64839 0 0 1.63998 0 3.65625V8.53125C0 9.20461 0.548187 9.75 1.225 9.75H7.35V3.65625C7.35 1.63998 5.70161 0 3.675 0ZM19.6 31.4262V26.8125H41.65V7.3125C41.65 3.27996 38.3532 0 34.3 0H8.54361C9.32072 1.02146 9.8 2.27906 9.8 3.65625V31.6875C9.8 34.6483 12.4529 36.9929 15.523 36.4955C17.9325 36.1055 19.6 33.8554 19.6 31.4262V31.4262ZM22.05 29.25V31.6875C22.05 35.7193 18.7532 39 14.7 39H40.425C45.1612 39 49 35.1807 49 30.4688C49 29.7954 48.4518 29.25 47.775 29.25H22.05Z" fill="url(#paint0_linear_1302_77)"/>
<defs>
<linearGradient id="paint0_linear_1302_77" x1="27.7237" y1="-5.77303" x2="24.5326" y2="39.0023" gradientUnits="userSpaceOnUse">
<stop stop-color="#59B791" stop-opacity="0.6"/>
<stop offset="1" stop-color="#17C1E8"/>
</linearGradient>
</defs>
</svg>
