<svg width="50" height="40" viewBox="0 0 50 40" fill="none" xmlns="http://www.w3.org/2000/svg">
<path d="M45.5563 0H3.69375C2.71411 0 1.77459 0.389162 1.08187 1.08187C0.389162 1.77459 0 2.71411 0 3.69375L0 28.3188C0 29.2984 0.389162 30.2379 1.08187 30.9306C1.77459 31.6233 2.71411 32.0125 3.69375 32.0125H22.1625V34.475H8.61875C8.2922 34.475 7.97903 34.6047 7.74813 34.8356C7.51722 35.0665 7.3875 35.3797 7.3875 35.7063V38.1688C7.3875 38.4953 7.51722 38.8085 7.74813 39.0394C7.97903 39.2703 8.2922 39.4 8.61875 39.4H40.6313C40.9578 39.4 41.271 39.2703 41.5019 39.0394C41.7328 38.8085 41.8625 38.4953 41.8625 38.1688V35.7063C41.8625 35.3797 41.7328 35.0665 41.5019 34.8356C41.271 34.6047 40.9578 34.475 40.6313 34.475H27.0875V32.0125H45.5563C46.5359 32.0125 47.4754 31.6233 48.1681 30.9306C48.8608 30.2379 49.25 29.2984 49.25 28.3188V3.69375C49.25 2.71411 48.8608 1.77459 48.1681 1.08187C47.4754 0.389162 46.5359 0 45.5563 0V0ZM44.325 27.0875H4.925V4.925H44.325V27.0875Z" fill="url(#paint0_linear_1302_86)"/>
<defs>
<linearGradient id="paint0_linear_1302_86" x1="24.625" y1="0" x2="24.625" y2="39.4" gradientUnits="userSpaceOnUse">
<stop stop-color="#59B791" stop-opacity="0.6"/>
<stop offset="1" stop-color="#17C1E8"/>
</linearGradient>
</defs>
</svg>
